<?xml version="1.0" standalone="no"?>
<!DOCTYPE svg PUBLIC "-//W3C//DTD SVG 20010904//EN"
 "http://www.w3.org/TR/2001/REC-SVG-20010904/DTD/svg10.dtd">
<svg version="1.0" xmlns="http://www.w3.org/2000/svg"
 width="600.000000pt" height="600.000000pt" viewBox="0 0 600.000000 600.000000"
 preserveAspectRatio="xMidYMid meet">
<metadata>
Created by potrace 1.11, written by Peter Selinger 2001-2013
</metadata>
<g transform="translate(0.000000,600.000000) scale(0.100000,-0.100000)"
fill="#000000" stroke="none">
<path d="M490 5285 c-41 -7 -95 -14 -120 -14 -96 -2 -160 -38 -160 -89 0 -30
59 -94 156 -169 213 -165 452 -399 547 -536 35 -51 85 -132 112 -182 l48 -90
-6 -170 c-5 -122 -12 -190 -26 -240 -11 -38 -23 -81 -26 -95 -4 -14 -23 -66
-42 -117 l-35 -92 5 -198 c3 -109 10 -225 15 -258 6 -33 17 -115 26 -181 8
-67 20 -133 25 -148 6 -14 31 -108 55 -208 69 -281 134 -431 229 -529 102
-104 300 -280 436 -386 78 -61 193 -123 227 -123 14 0 59 -18 150 -61 22 -10
48 -19 56 -19 9 0 38 -9 65 -21 76 -33 324 -99 370 -99 23 0 54 -5 70 -11 75
-30 719 -52 868 -29 205 30 274 43 325 62 30 11 98 30 150 42 334 81 437 121
655 257 165 102 323 264 381 389 14 30 38 80 54 111 16 30 43 109 60 175 17
65 45 160 62 209 41 120 53 221 53 460 0 169 -4 227 -27 377 -16 97 -28 193
-28 215 0 21 -10 58 -21 83 -11 25 -33 97 -49 160 -15 63 -33 127 -39 142 -12
32 -7 181 7 230 74 250 167 433 300 591 42 51 143 154 224 230 121 114 148
144 148 166 0 58 -13 60 -250 51 -118 -4 -262 -16 -320 -25 -136 -22 -332 -87
-490 -164 -137 -66 -194 -104 -638 -425 l-104 -75 -46 16 c-62 19 -226 63
-282 74 -25 5 -66 16 -91 25 -39 12 -95 14 -330 11 -279 -4 -318 -7 -462 -45
-33 -9 -42 -7 -58 9 -10 10 -19 23 -19 29 0 38 -269 267 -450 382 -86 55 -370
165 -495 192 -16 4 -106 32 -200 63 l-170 57 -410 2 c-311 2 -428 -1 -485 -11z
m1050 -152 c85 -29 200 -65 255 -79 91 -24 196 -64 343 -130 64 -28 350 -240
413 -306 25 -26 54 -65 65 -85 36 -72 51 -83 115 -83 32 0 70 5 86 11 92 35
220 49 443 49 206 0 233 -2 310 -23 47 -13 119 -32 160 -41 88 -21 186 -54
217 -74 13 -8 33 -12 45 -8 13 3 82 49 153 101 479 352 632 443 876 521 156
50 246 65 424 71 138 4 158 3 145 -9 -8 -8 -52 -49 -97 -92 -72 -69 -87 -79
-124 -82 -23 -2 -74 -19 -113 -37 -39 -19 -89 -40 -110 -47 -52 -17 -91 -40
-207 -121 -52 -37 -108 -83 -123 -103 -38 -51 -75 -134 -82 -188 -7 -47 9
-133 31 -178 28 -55 144 -178 188 -199 44 -21 45 -24 50 -74 6 -63 69 -302 91
-345 9 -17 16 -45 16 -63 0 -17 5 -59 10 -93 42 -256 50 -331 50 -490 0 -219
-14 -337 -55 -461 -18 -55 -45 -145 -60 -200 -33 -124 -101 -268 -171 -361
-142 -191 -444 -377 -704 -434 -30 -7 -63 -17 -72 -21 -10 -5 -59 -18 -110
-29 -51 -10 -117 -29 -147 -40 -29 -11 -108 -31 -175 -43 -112 -20 -151 -22
-506 -21 -321 0 -394 3 -440 16 -30 9 -84 18 -120 22 -36 3 -126 24 -200 47
-74 23 -175 54 -225 69 -215 66 -360 148 -534 303 -275 245 -324 295 -355 356
-45 88 -84 198 -111 307 -14 60 -39 159 -56 221 -16 61 -33 153 -38 205 -5 51
-15 107 -21 123 -8 18 -14 117 -17 257 l-6 226 36 94 c45 119 67 198 77 274
13 104 31 128 146 203 149 96 251 153 310 172 80 27 110 46 124 78 11 26 9 37
-15 88 -15 32 -38 94 -52 138 -32 101 -54 130 -154 201 -77 54 -339 183 -443
218 -60 19 -389 24 -430 5 -22 -10 -32 -5 -118 67 -51 44 -110 92 -131 108
-21 16 -36 31 -34 33 2 2 46 10 98 17 71 11 198 14 509 13 l415 -2 155 -52z
m-541 -283 c86 -15 383 -153 475 -223 69 -51 70 -53 96 -137 15 -47 34 -99 43
-117 19 -36 18 -37 -38 -52 -22 -6 -67 -27 -100 -47 -33 -20 -82 -47 -110 -61
-27 -14 -78 -45 -111 -69 -34 -24 -64 -44 -68 -44 -3 0 -6 26 -6 59 0 117
-151 370 -345 577 -58 62 -105 115 -105 118 0 10 201 6 269 -4z m4261 -145 c0
-2 -25 -46 -55 -96 -83 -140 -143 -284 -197 -471 -7 -24 -15 -35 -24 -31 -23
9 -125 140 -134 175 -17 56 -11 102 18 159 19 38 32 53 44 51 25 -4 52 12 139
85 98 81 209 149 209 128z"/>
<path d="M2400 3733 c-8 -3 -27 -17 -42 -31 -34 -31 -39 -97 -10 -130 39 -44
188 -59 233 -23 34 27 34 99 0 135 -35 37 -137 65 -181 49z"/>
<path d="M4003 3691 c-66 -31 -91 -98 -58 -161 22 -43 63 -60 145 -60 108 0
150 29 150 103 0 34 -32 87 -52 87 -6 0 -21 11 -34 25 -29 31 -90 33 -151 6z"/>
<path d="M3916 3049 c-77 -22 -264 -108 -357 -164 -33 -21 -61 -36 -62 -34
-19 36 -29 45 -53 53 -16 5 -47 17 -70 27 -28 12 -61 17 -103 15 -59 -2 -64
-4 -95 -41 l-33 -39 -64 12 c-35 6 -93 14 -129 17 -36 4 -112 15 -170 25 -257
45 -329 50 -765 50 -364 0 -424 -2 -443 -16 -27 -18 -29 -55 -4 -77 17 -15 64
-17 463 -18 372 0 462 -3 554 -18 122 -19 119 -24 -25 -41 -52 -6 -149 -19
-215 -29 -252 -40 -333 -52 -430 -66 -118 -16 -243 -50 -267 -72 -25 -22 -22
-60 5 -77 20 -13 30 -13 92 5 105 29 144 37 215 44 36 3 103 13 150 20 126 21
407 63 470 70 30 4 104 15 164 26 60 10 134 19 165 19 l56 0 -75 -43 c-41 -24
-113 -66 -160 -94 -47 -28 -127 -75 -179 -105 -52 -29 -103 -65 -114 -80 -19
-25 -19 -28 -3 -52 20 -32 58 -34 94 -5 15 11 77 48 137 81 61 33 148 83 195
112 47 29 121 73 165 98 78 45 80 45 98 27 10 -11 31 -19 49 -19 l31 0 -5
-167 c-3 -97 -12 -196 -21 -233 -8 -36 -20 -89 -26 -118 -6 -30 -23 -84 -37
-120 -56 -145 -92 -192 -147 -192 -41 0 -51 11 -67 70 -19 77 -21 80 -46 96
-22 15 -26 15 -50 -1 -24 -16 -26 -21 -20 -64 10 -73 37 -138 73 -173 31 -30
38 -32 101 -32 102 1 140 27 201 137 18 31 34 57 35 57 2 0 13 -20 25 -44 29
-55 86 -88 202 -116 93 -22 237 -27 272 -9 12 6 34 23 50 37 l27 26 0 151 c0
168 -8 195 -59 195 -46 0 -49 -11 -43 -160 5 -134 4 -138 -17 -149 -35 -19
-261 13 -308 44 -57 38 -82 169 -48 252 12 28 15 84 15 273 l0 237 66 6 c51 4
76 1 108 -13 22 -10 99 -35 170 -55 137 -38 288 -108 391 -179 89 -63 128 -80
158 -72 36 9 46 49 21 77 -11 12 -36 30 -57 41 -21 10 -59 35 -84 54 -89 68
-266 146 -443 194 l-45 13 34 14 c19 8 84 21 145 29 61 8 118 16 126 19 51 15
180 28 349 34 179 6 195 8 207 26 11 16 11 25 1 45 l-13 25 -219 -1 c-159 -1
-244 -5 -309 -17 -49 -10 -98 -17 -110 -17 -20 1 -19 2 4 15 14 8 69 28 122
45 117 37 143 65 98 110 -24 24 -26 24 -114 -1z"/>
<path d="M1535 1174 c-91 -47 -130 -146 -190 -484 -12 -66 -19 -169 -21 -335
-3 -132 -6 -266 -7 -297 l-3 -58 53 0 c47 0 53 3 57 23 3 12 7 150 9 307 4
211 9 306 21 365 50 241 59 281 74 314 26 57 42 71 81 71 82 -1 85 -13 89
-397 2 -207 0 -328 -7 -341 -14 -25 -48 -202 -54 -280 l-5 -62 53 0 c51 0 53
1 59 31 3 17 6 50 6 73 1 45 32 195 46 217 5 8 10 145 11 304 2 360 -10 446
-71 513 -45 50 -142 67 -201 36z"/>
<path d="M2039 1078 c-22 -18 -92 -106 -121 -153 -43 -67 -68 -220 -68 -419 0
-94 -4 -195 -10 -225 -5 -31 -15 -92 -21 -136 -6 -44 -14 -95 -16 -112 l-5
-33 54 0 53 0 14 78 c23 129 30 219 30 392 1 132 6 188 24 277 22 104 28 117
72 175 27 35 54 66 59 70 6 4 26 0 45 -9 528 -229 659 -257 1159 -251 l293 3
-5 -25 c-4 -14 -13 -92 -21 -173 -8 -81 -17 -151 -19 -156 -3 -4 -9 -41 -15
-82 -5 -41 -19 -118 -30 -172 -28 -134 -30 -127 32 -127 l52 0 22 118 c24 127
47 275 64 417 6 50 18 130 27 178 15 79 15 91 1 115 -13 24 -20 27 -59 23 -25
-2 -207 -4 -405 -5 -338 -1 -367 0 -467 22 -116 24 -225 61 -416 142 -74 30
-157 57 -205 66 -99 17 -99 17 -118 2z"/>
<path d="M4183 930 c-43 -10 -76 -33 -107 -72 -27 -36 -76 -191 -76 -241 0
-17 -9 -80 -20 -141 -11 -61 -27 -163 -36 -226 -9 -63 -22 -142 -30 -175 -8
-33 -14 -63 -14 -67 0 -5 24 -8 54 -8 l54 0 12 53 c14 67 39 222 50 312 4 39
15 103 24 143 9 40 16 88 16 107 0 45 38 166 59 188 20 20 112 34 155 23 l26
-6 0 -228 c0 -164 -4 -241 -14 -277 -17 -60 -59 -174 -75 -201 -14 -25 -41
-94 -41 -106 0 -5 25 -8 56 -6 l55 3 25 60 c14 33 43 111 65 173 l39 112 0
244 c0 236 -1 244 -22 276 -34 50 -81 70 -158 69 -36 -1 -80 -4 -97 -9z"/>
</g>
</svg>
